<?xml version="1.0" encoding="iso-8859-1"?>
<!-- Uploaded to: SVG Repo, www.svgrepo.com, Generator: SVG Repo Mixer Tools -->
<svg fill="#fff" stroke="#000000" stroke-width="8" height="780px" width="800px" version="1.1" id="Layer_1" xmlns="http://www.w3.org/2000/svg" xmlns:xlink="http://www.w3.org/1999/xlink" 
	 viewBox="0 -4 470 480" xml:space="preserve">
<g>
	<g>
		<path d="M472.615,118.154V0H0v118.154h68.923v29.539H0v118.154h68.923v29.538H0v118.154h68.923v39.385H29.538v19.692h413.538
			v-19.692h-39.385v-39.385h68.923V295.385h-68.923v-29.538h68.923V147.692h-68.923v-29.539H472.615z M403.692,49.231h19.692v19.692
			h-19.692V49.231z M354.462,49.231h19.692v19.692h-19.692V49.231z M305.231,49.231h19.692v19.692h-19.692V49.231z M256,49.231
			h19.692v19.692H256V49.231z M49.231,59.077c0-10.929,8.862-19.692,19.692-19.692c10.831,0,19.692,8.763,19.692,19.692
			c0,10.831-8.862,19.692-19.692,19.692C58.092,78.769,49.231,69.908,49.231,59.077z M49.231,206.769
			c0-10.929,8.862-19.692,19.692-19.692c10.831,0,19.692,8.763,19.692,19.692c0,10.831-8.862,19.692-19.692,19.692
			C58.092,226.462,49.231,217.6,49.231,206.769z M68.923,374.154c-10.831,0-19.692-8.862-19.692-19.692
			c0-10.929,8.862-19.692,19.692-19.692c10.831,0,19.692,8.763,19.692,19.692C88.615,365.292,79.754,374.154,68.923,374.154z
			 M384,452.923H88.615v-39.385H384V452.923z M256,364.308v-19.692h19.692v19.692H256z M305.231,364.308v-19.692h19.692v19.692
			H305.231z M354.462,364.308v-19.692h19.692v19.692H354.462z M384,295.385H88.615v-29.538H384V295.385z M256,216.615v-19.692
			h19.692v19.692H256z M305.231,216.615v-19.692h19.692v19.692H305.231z M354.462,216.615v-19.692h19.692v19.692H354.462z
			 M384,147.692H88.615v-29.539H384V147.692z M423.385,344.615v19.692h-19.692v-19.692H423.385z M423.385,196.923v19.692h-19.692
			v-19.692H423.385z"/>
	</g>
</g>
</svg>